PathFileType	4	(X/Y/Z)	1_coords_data.trc
DataRate	CameraRate	NumFrames	NumMarkers	Units	OrigDataRate	OrigDataStartFrame	OrigNumFrames
30.0	30.0	6	21	m	30.0	19	65
Frame#	Time	THUMB_TIP	THUMB_IP	THUMB_MCP	THUMB_CMC	INDEX_TIP	INDEX_DIP	INDEX_PIP	INDEX_MCP	MIDDLE_TIP	MIDDLE_DIP	MIDDLE_PIP	MIDDLE_MCP	RING_TIP	RING_DIP	RING_PIP	RING_MCP	PINKY_TIP	PINKY_DIP	PINKY_PIP	PINKY_MCP	WRIST
X1	Y1	Z1	X2	Y2	Z2	X3	Y3	Z3	X4	Y4	Z4	X5	Y5	Z5	X6	Y6	Z6	X7	Y7	Z7	X8	Y8	Z8	X9	Y9	Z9	X10	Y10	Z10	X11	Y11	Z11	X12	Y12	Z12	X13	Y13	Z13	X14	Y14	Z14	X15	Y15	Z15	X16	Y16	Z16	X17	Y17	Z17	X18	Y18	Z18	X19	Y19	Z19	X20	Y20	Z20	X21	Y21	Z21
17	0.5999999999999973	0.47716047996262756	-0.004127303037831709	-0.1687680595103636	0.4797856553518607	-0.011281978888576294	-0.14709044276759098	0.473343888149759	-0.026193300272356446	-0.12053905617661331	0.4763572837171859	-0.02928423262271551	-0.0761402320439889	0.5078665629649083	-0.012135439845742724	-0.10962161844005325	0.5245804605841231	-0.007215818468804924	-0.11456559981966852	0.53067733275534	0.014466443455229072	-0.12573329880313977	0.48886681605989746	0.020007103030557527	-0.11983263111800124	0.506197934632467	-0.01411674520425621	-0.09176820159255494	0.5235180400499535	-0.008880189168359531	-0.09253789582409722	0.5374697987291788	0.015088044580745641	-0.10149790423396576	0.4970199127744333	0.03388625216712049	-0.09893235579598136	0.5060766720768629	-0.004331893174167933	-0.07555487723591237	0.5235291994858977	0.00017227605388348	-0.07520595517876727	0.5380462056705778	0.020055817291036226	-0.07895846078228208	0.5034198671849345	0.040863239834211695	-0.07728852539807818	0.5073691849776171	-0.007231508627548067	-0.0577147662319305	0.5240766272764937	-0.0036577891478317692	-0.0566707830376213	0.5347973933021217	0.0143927290068262	-0.05690740334970945	0.5062271750332599	0.036300660908607285	-0.05474670928147185	0.46228308100186083	-0.023011742144276925	-0.051989820119430985
18	0.6333333333333304	0.4774188737695382	-0.003131337900547093	-0.16853779319683188	0.4798049412414849	-0.010525537312747635	-0.1469129811266212	0.4732759535619501	-0.025760539312156605	-0.12056744955182663	0.4763204480936261	-0.02916076804936163	-0.07619336367300222	0.5080892628998193	-0.011787087952660924	-0.10981820435421097	0.5246775918737775	-0.006602665209115455	-0.11491223052885402	0.5303273076128174	0.015243052498444709	-0.12599623535155402	0.4885228536110849	0.020399474354446223	-0.11971650340982398	0.5063164048158497	-0.013695784643015463	-0.09200576023631934	0.5236044920433884	-0.008366004723235676	-0.0928516243032469	0.537288630949412	0.015770024646351022	-0.10177384256279987	0.4966983821413525	0.03419995773044926	-0.09878767625539475	0.5061568438060116	-0.004063364033402461	-0.07569701278741459	0.5235868521859386	0.000532241915567222	-0.07542276137453385	0.5379374851880574	0.020543130025614365	-0.0791380902274984	0.503167847690033	0.04108139601310612	-0.0771449087297369	0.5075452923402214	-0.007087066305466183	-0.05782301263677714	0.5242322018443983	-0.003396646712165885	-0.05685976063195497	0.5348286139698177	0.01472760909562243	-0.05705830655137023	0.5061006313560393	0.036399630200928956	-0.054627264150753474	0.46228308100186094	-0.023011742144276925	-0.051989820119430985
19	0.6666666666666637	0.4776608557560749	-0.0024887273666109877	-0.16837516881157777	0.4798655546265644	-0.010036902002779624	-0.14678432902817978	0.4732530788864662	-0.025482398440931142	-0.12058257709504239	0.4763021119299831	-0.029079962232671397	-0.07622436554110446	0.508267799779601	-0.011630356537110864	-0.10992872083287952	0.5247448699375454	-0.006209598968942576	-0.11513655592985805	0.5300853576957034	0.015740668774871125	-0.12616718462816268	0.48828517839395735	0.020637259507040984	-0.11965531058580658	0.50638471335627	-0.013473801452479561	-0.09212390388679959	0.5236431909651107	-0.008059756589812284	-0.09303662994108175	0.5371427677341778	0.016189288076630337	-0.10193352882894946	0.4964681247428726	0.03439343815638407	-0.09871945689389905	0.506186963022631	-0.0039092199569052966	-0.07579218603254656	0.5235982861671231	0.0007590629776217384	-0.07556205389381077	0.5378441786380487	0.020848660806526143	-0.07925564100929983	0.5029881238742333	0.04122122251757454	-0.07707963328150269	0.5076350850213257	-0.006996059390609322	-0.057902267285675046	0.5243038761968097	-0.0032131129676585823	-0.056985361015007285	0.5348238898462179	0.014955829999022785	-0.0571609835925605	0.5059980984970422	0.03647797159321575	-0.05456201739553068	0.46228308100186094	-0.023011742144276925	-0.051989820119430985
20	0.6999999999999968	0.47798169638858873	-0.0021810171265245204	-0.16827804128159252	0.48005773857966344	-0.009796246340822101	-0.14669799649863186	0.47334625053108126	-0.025336420912310698	-0.12057752746644568	0.47632018528173287	-0.029042812855236022	-0.07622317738819195	0.5083788859363987	-0.011544590593446702	-0.10997589469426727	0.5248084784957906	-0.00602037093063168	-0.11522484558462065	0.5299829029674479	0.01599050499775223	-0.12621377206778583	0.4881829713183917	0.020766229544513348	-0.11961117688197431	0.5064074134342846	-0.013347329016884957	-0.09217192590203327	0.5236543935520281	-0.007899398621940112	-0.09310022069895685	0.5370712045784425	0.016401777729226352	-0.10198006077809085	0.4963571397143989	0.03450016068758566	-0.09866926366273943	0.5061860410279619	-0.0038633496785206445	-0.07580164960123648	0.5235883632838869	0.0008391346326648286	-0.07558759025434514	0.537784365121031	0.020966361436867254	-0.07926838527879343	0.5029066170645349	0.041294363857044325	-0.07702431707286428	0.507663143562422	-0.006947110709501492	-0.05788834311112667	0.5243241559682973	-0.003123900564935056	-0.05699742796266749	0.5348167910116332	0.015060810051490514	-0.057178890477303734	0.5059487476674083	0.036516742255624735	-0.05450260616364111	0.4622830810018609	-0.023011742144276925	-0.051989820119430985
21	0.7333333333333302	0.4783694019611351	-0.002193492164585198	-0.16823292110022997	0.4803739597840528	-0.009802059432639232	-0.14664376984173721	0.47352840043831373	-0.025336956073186978	-0.12055497332653808	0.476362622188983	-0.02906415358353487	-0.07619321968912107	0.5084432835047202	-0.011628821894859809	-0.10993939790668039	0.5248591111324075	-0.006071062670602756	-0.11519600476883496	0.5300257275720155	0.015955756636482743	-0.12615662239645886	0.48822307369086204	0.020765634973610392	-0.11959618850268927	0.5064070301405375	-0.013408337177862717	-0.09213205814270031	0.5236524719278808	-0.007955068048956182	-0.09305758143633824	0.5370851258790821	0.01634463835232769	-0.10191747007213259	0.4963888475910729	0.034491954259159074	-0.09865621573023053	0.506165308897321	-0.0039284196630967605	-0.07575733218726233	0.5235686039352221	0.0007702052841961349	-0.07553768376717573	0.5377829125972496	0.02088625003184763	-0.07920894403731393	0.5029417673906814	0.041280944342893755	-0.07700171077963325	0.5076510829742586	-0.00696784149746954	-0.05785363053169601	0.5243134088558001	-0.0031511185372649075	-0.0569594705558768	0.534825196609604	0.015022529801726026	-0.05714069767768626	0.5059732060291892	0.03650030629467371	-0.0544665235123335	0.4622830810018609	-0.023011742144276925	-0.051989820119430985
22	0.7666666666666633	0.47872755125363514	-0.0024367134774776478	-0.16824691027117433	0.4807334761644675	-0.009976588638757056	-0.14663379971752138	0.47376355570869966	-0.025425139944343922	-0.1205266652252237	0.47641754511924617	-0.029108306991708854	-0.07615008783680943	0.5085013325521759	-0.011805077729016067	-0.1098311133641523	0.5249501874161264	-0.006306137111213861	-0.11504617096177994	0.5302006222790855	0.015701916256813164	-0.12600465414604867	0.48839286091636275	0.020667366603124848	-0.11959438997864191	0.5063537139937926	-0.013588420694449543	-0.09203059290792459	0.523620263942296	-0.008194152286418399	-0.09290701815742042	0.5371580778493203	0.016051283150890883	-0.10175552114233555	0.496537897917912	0.034397582119696235	-0.09866323760306739	0.5060880916208632	-0.004093566052688957	-0.07566856291071455	0.5235065938472956	0.000546473178662743	-0.07541201638610029	0.5378011708222197	0.020608705102805436	-0.07906604133536943	0.5030682262193682	0.04120171779181092	-0.07699934793631047	0.5075640632541186	-0.007027222691984525	-0.0577719637881875	0.5242415680870991	-0.0032844812446551908	-0.05684853593266537	0.5348209656463285	0.014849775846996094	-0.057041113235754226	0.506050353620295	0.03644486315020301	-0.05443582265419933	0.46228308100186083	-0.023011742144276925	-0.051989820119430985
